<?xml version="1.0" encoding="UTF-8"?>
<svg id="Layer_2" data-name="Layer 2" xmlns="http://www.w3.org/2000/svg" viewBox="0 0 473.77 135.16">
  <g id="Layer_1-2" data-name="Layer 1">
    <g>
      <path d="M30.48,0c28.78,0,35.38,14.46,35.38,25.66v2.22c0,11.57-5.04,27.3-35.31,27.3H2.22V0h28.26ZM29.82,42.87c18.54,0,20.18-9.05,20.18-15.28v-.44c0-6.23-1.78-14.91-20.18-14.91h-12.31v30.63h12.31Z"/>
      <path d="M137.82,42.95v5.71c0,4.15.37,5.27.89,6.16v.37h-15.8c-.22-.37-.52-1.41-.52-3.86v-4.52c0-7.12-2.6-10.38-10.31-10.38h-19.88v18.77h-15.28V0h37.16c20.99,0,23.36,8.75,23.36,14.76v.74c0,6.9-4.75,11.57-11.65,13.13,7.49,1.71,12.02,6.23,12.02,14.32ZM113.49,23.88c6.23,0,7.94-2.67,7.94-5.86v-.15c0-3.19-1.71-5.71-7.94-5.71h-21.29v11.72h21.29Z"/>
      <path d="M163.48,44.95l-4.45,10.24h-15.35L168.16,0h20.47l25.59,55.18h-16.39l-4.52-10.24h-29.82ZM168.45,33.6h19.73l-10.01-22.47-9.72,22.47Z"/>
      <path d="M272.15,12.24h-35.08v9.87h34.04v12.61h-34.04v20.47h-15.21V0h50.29v12.24Z"/>
      <path d="M280.61,12.61V0h57.93v12.61h-21.36v42.58h-15.21V12.61h-21.36Z"/>
      <path d="M399.29,12.02h-35.46v8.98h34.34v12.46h-34.34v9.57h35.9v12.16h-50.96V0h50.51v12.02Z"/>
      <path d="M472.88,42.95v5.71c0,4.15.37,5.27.89,6.16v.37h-15.8c-.22-.37-.52-1.41-.52-3.86v-4.52c0-7.12-2.6-10.38-10.31-10.38h-19.88v18.77h-15.28V0h37.16c20.99,0,23.37,8.75,23.37,14.76v.74c0,6.9-4.75,11.57-11.64,13.13,7.49,1.71,12.02,6.23,12.02,14.32ZM448.55,23.88c6.23,0,7.94-2.67,7.94-5.86v-.15c0-3.19-1.71-5.71-7.94-5.71h-21.29v11.72h21.29Z"/>
      <path d="M0,116.84v-.82h16.61c.22,2.45,1.26,7.94,12.98,7.94h.52c11.5,0,12.98-3.41,12.98-6.6s-2.15-5.34-11.27-5.71l-7.34-.22c-18.1-.59-23.88-7.79-23.88-16.09v-.67c0-8.6,4.6-16.32,27.44-16.32h2.52c24.4,0,27.74,8.9,27.74,16.17v.82h-16.39c-.37-2.45-1.71-6.08-12.39-6.08h-.74c-9.79,0-12.09,1.85-12.09,4.9,0,2.82,2,4.9,10.68,5.27l7.64.3c19.66.82,24.4,7.19,24.4,16.17v.89c0,8.08-3.71,18.39-28.41,18.39h-2.15c-25.89,0-28.85-11.72-28.85-18.32Z"/>
      <path d="M66.31,91.62v-12.61h57.93v12.61h-21.36v42.58h-15.21v-42.58h-21.36Z"/>
      <path d="M134.11,107.05v-28.04h15.28v27.67c0,6.3,1.78,15.35,15.8,15.35h.37c14.02,0,15.65-9.05,15.65-15.35v-27.67h15.21v28.04c0,11.05-3.86,27.96-29.97,27.96h-2.15c-27.07,0-30.19-16.99-30.19-27.96Z"/>
      <path d="M237.96,79.01c28.78,0,35.38,14.46,35.38,25.66v2.22c0,11.57-5.04,27.3-35.31,27.3h-28.33v-55.18h28.26ZM237.29,121.89c18.54,0,20.18-9.05,20.18-15.28v-.44c0-6.23-1.78-14.91-20.18-14.91h-12.31v30.63h12.31Z"/>
      <path d="M284.39,134.2v-55.18h15.28v55.18h-15.28Z"/>
      <path d="M380.45,105.34v2.23c0,11.87-7.34,27.52-33.16,27.52h-3.26c-25.81,0-33.15-15.65-33.15-27.52v-2.23c0-12.02,7.34-27.22,33.15-27.22h3.26c25.81,0,33.16,15.13,33.16,27.22ZM345.66,90.73c-15.43,0-18.91,8.38-18.91,15.21v1.04c0,6.68,3.71,15.43,18.91,15.43s18.91-8.75,18.91-15.43v-1.04c0-6.82-3.34-15.21-18.91-15.21Z"/>
    </g>
  </g>
</svg>